<svg width="1440" height="30" viewBox="0 0 1440 30" fill="none" xmlns="http://www.w3.org/2000/svg">
<path d="M11.7574 2.24264L-5.75736 19.7574C-9.53715 23.5371 -6.86023 30 -1.5148 30H1441.51C1446.86 30 1449.54 23.5372 1445.76 19.7574L1428.24 2.24264C1425.9 -0.100505 1422.1 -0.10051 1419.76 2.24264L1396.24 25.7574C1393.9 28.1005 1390.1 28.1005 1387.76 25.7574L1364.24 2.24264C1361.9 -0.100505 1358.1 -0.10051 1355.76 2.24264L1332.24 25.7574C1329.9 28.1005 1326.1 28.1005 1323.76 25.7574L1300.24 2.24264C1297.9 -0.100505 1294.1 -0.10051 1291.76 2.24264L1268.24 25.7574C1265.9 28.1005 1262.1 28.1005 1259.76 25.7574L1236.24 2.24264C1233.9 -0.100505 1230.1 -0.10051 1227.76 2.24264L1204.24 25.7574C1201.9 28.1005 1198.1 28.1005 1195.76 25.7574L1172.24 2.24264C1169.9 -0.100505 1166.1 -0.10051 1163.76 2.24264L1140.24 25.7574C1137.9 28.1005 1134.1 28.1005 1131.76 25.7574L1108.24 2.24264C1105.9 -0.100505 1102.1 -0.10051 1099.76 2.24264L1076.24 25.7574C1073.9 28.1005 1070.1 28.1005 1067.76 25.7574L1044.24 2.24264C1041.9 -0.100505 1038.1 -0.10051 1035.76 2.24264L1012.24 25.7574C1009.9 28.1005 1006.1 28.1005 1003.76 25.7574L980.243 2.24264C977.899 -0.100505 974.101 -0.10051 971.757 2.24264L948.243 25.7574C945.899 28.1005 942.101 28.1005 939.757 25.7574L916.243 2.24264C913.899 -0.100505 910.101 -0.10051 907.757 2.24264L884.243 25.7574C881.899 28.1005 878.101 28.1005 875.757 25.7574L852.243 2.24264C849.899 -0.100505 846.101 -0.10051 843.757 2.24264L820.243 25.7574C817.899 28.1005 814.101 28.1005 811.757 25.7574L788.243 2.24264C785.899 -0.100505 782.101 -0.10051 779.757 2.24264L756.243 25.7574C753.899 28.1005 750.101 28.1005 747.757 25.7574L724.243 2.24264C721.899 -0.100505 718.101 -0.10051 715.757 2.24264L692.243 25.7574C689.899 28.1005 686.101 28.1005 683.757 25.7574L660.243 2.24264C657.899 -0.100505 654.101 -0.10051 651.757 2.24264L628.243 25.7574C625.899 28.1005 622.101 28.1005 619.757 25.7574L596.243 2.24264C593.899 -0.100505 590.101 -0.10051 587.757 2.24264L564.243 25.7574C561.899 28.1005 558.101 28.1005 555.757 25.7574L532.243 2.24264C529.899 -0.100505 526.101 -0.10051 523.757 2.24264L500.243 25.7574C497.899 28.1005 494.101 28.1005 491.757 25.7574L468.243 2.24264C465.9 -0.100505 462.101 -0.10051 459.757 2.24264L436.243 25.7574C433.9 28.1005 430.101 28.1005 427.757 25.7574L404.243 2.24264C401.9 -0.100505 398.101 -0.10051 395.757 2.24264L372.243 25.7574C369.9 28.1005 366.101 28.1005 363.757 25.7574L340.243 2.24264C337.9 -0.100505 334.101 -0.10051 331.757 2.24264L308.243 25.7574C305.9 28.1005 302.101 28.1005 299.757 25.7574L276.243 2.24264C273.9 -0.100505 270.101 -0.10051 267.757 2.24264L244.243 25.7574C241.9 28.1005 238.101 28.1005 235.757 25.7574L212.243 2.24264C209.899 -0.100505 206.101 -0.10051 203.757 2.24264L180.243 25.7574C177.899 28.1005 174.101 28.1005 171.757 25.7574L148.243 2.24264C145.899 -0.100505 142.101 -0.10051 139.757 2.24264L116.243 25.7574C113.899 28.1005 110.101 28.1005 107.757 25.7574L84.2426 2.24264C81.8995 -0.100505 78.1005 -0.10051 75.7574 2.24264L52.2426 25.7574C49.8995 28.1005 46.1005 28.1005 43.7574 25.7574L20.2426 2.24264C17.8995 -0.100505 14.1005 -0.10051 11.7574 2.24264Z" fill="#B85732"/>
</svg>
